<svg data-v-0dd9719b="" version="1.0" xmlns="http://www.w3.org/2000/svg" xmlns:xlink="http://www.w3.org/1999/xlink" width="100%" height="100%" viewBox="0 0 340.000000 250.000000" preserveAspectRatio="xMidYMid meet" color-interpolation-filters="sRGB" style="margin: auto;"> <rect data-v-0dd9719b="" x="0" y="0" width="100%" height="100%" fill="#fff" fill-opacity="1" class="background"></rect> <rect data-v-0dd9719b="" x="0" y="0" width="100%" height="100%" fill="url(#watermark)" fill-opacity="1" class="watermarklayer"></rect> <g data-v-0dd9719b="" fill="#333" class="icon-text-wrapper icon-svg-group iconsvg" transform="translate(46.284996032714844,98.40118980407715)"><g class="iconsvg-imagesvg" transform="translate(0,0)"><g><rect fill="#333" fill-opacity="0" stroke-width="2" x="0" y="0" width="60" height="53.19762029311889" class="image-rect"></rect> <svg x="0" y="0" width="60" height="53.19762029311889" filtersec="colorsb9460605244" class="image-svg-svg primary" style="overflow: visible;"><svg xmlns="http://www.w3.org/2000/svg" viewBox="-0.011847455985844135 -0.008401558734476566 109.51484680175781 97.09839630126953"><path d="M92 47.75v3.77a68.23 68.23 0 0 1-3.17 19.64 37.48 37.48 0 0 1-8 13.9 34.41 34.41 0 0 1-11.26 8 46.72 46.72 0 0 1-15 3.71h-.14c-1.92.16-3.91.25-6 .25H43.7a54.54 54.54 0 0 1-18.84-3 34.91 34.91 0 0 1-13.63-8.82 37.55 37.55 0 0 1-8.39-14.94A73 73 0 0 1 0 48.74a74.16 74.16 0 0 1 2.84-21.68A38.18 38.18 0 0 1 11.23 12a34.92 34.92 0 0 1 13.64-9 52.66 52.66 0 0 1 16.8-3c-1 .37-2.06.76-3 1.2a37.3 37.3 0 0 0-12.25 8.59 40.22 40.22 0 0 0-8.87 15.5 73 73 0 0 0-3.15 21.42v3.17a60.9 60.9 0 0 0 1.21 11.42c.26 1.33.57 2.61.93 3.81a25.13 25.13 0 0 0 4.86 9.32 21.27 21.27 0 0 0 9.18 6.1A32.86 32.86 0 0 0 36.19 82l.45.07h.25a48.45 48.45 0 0 0 6.68.46h6.46a42.31 42.31 0 0 0 4.97-.46 29.41 29.41 0 0 0 8.9-2.61 20.91 20.91 0 0 0 6.65-5.09 26.14 26.14 0 0 0 5.26-10.6 59.78 59.78 0 0 0 1.7-15.19A60.33 60.33 0 0 0 75.8 33.4a26.85 26.85 0 0 0-5.19-10.66A20.54 20.54 0 0 0 64 17.61c-.1-.05-.2-.08-.3-.14h2.11a46.05 46.05 0 0 1 6.45.44h.17l.4.08 1 .17.56.11h.27l.27.06.53.13c.47.12.94.25 1.38.39L77 19c.31.09.6.2.89.3a18.43 18.43 0 0 1 7.9 5.35 24.2 24.2 0 0 1 4.51 9c.24.84.46 1.74.65 2.66a56.68 56.68 0 0 1 1 8.75v1.61c0 .26.05.6.05 1.08z" fill="#1e18cf"></path><path d="M109.49 48.29A73.82 73.82 0 0 1 106.65 70a38 38 0 0 1-8.39 15.09 35 35 0 0 1-13.63 9 52.78 52.78 0 0 1-17 3c1.08-.38 2.14-.8 3.16-1.26a37.44 37.44 0 0 0 12.2-8.66 40.29 40.29 0 0 0 8.65-15 71.65 71.65 0 0 0 3.32-20.48v-1-.91-2-1-.74-.94A52.31 52.31 0 0 0 93 31.9a25 25 0 0 0-4.86-9.32 21.28 21.28 0 0 0-9.17-6.09 39.21 39.21 0 0 0-13.13-2h-4.79a46.2 46.2 0 0 0-6.52.44 29.5 29.5 0 0 0-8.9 2.62A20.73 20.73 0 0 0 39 22.66a26.2 26.2 0 0 0-5.26 10.6A59.65 59.65 0 0 0 32 48.44a60.36 60.36 0 0 0 1.68 15.19 26.91 26.91 0 0 0 5.19 10.66 20.76 20.76 0 0 0 6.64 5.13l.29.13h-2.23a35.28 35.28 0 0 1-12-1.83 18.49 18.49 0 0 1-7.89-5.35 24.06 24.06 0 0 1-4.52-9 54.14 54.14 0 0 1-1.79-13.51v-1.55-1.54a70.14 70.14 0 0 1 3-20.55 37.08 37.08 0 0 1 8.2-14.37 34.42 34.42 0 0 1 11.26-7.91 47.38 47.38 0 0 1 15-3.67q3-.27 6.24-.27h4.74a54.54 54.54 0 0 1 18.82 3 35 35 0 0 1 13.64 8.85 33.79 33.79 0 0 1 4.87 6.66 43.13 43.13 0 0 1 3.52 8.27 73.12 73.12 0 0 1 2.83 21.51z" fill="#ffc100"></path></svg></svg> <!----></g></g> <g transform="translate(67,5.863809585571289)"><g data-gra="path-name" fill-rule="" class="tp-name iconsvg-namesvg"><g transform="scale(1)"><g><path d="M-0.99 8.1L-0.99 8.1-0.99 7.23Q0.73 7.06 1.94 6.22 3.14 5.38 3.79 3.36 4.44 1.33 4.44-2.33L4.44-2.33 4.44-25.92Q4.44-27.52 4.2-28.27 3.96-29.02 3.27-29.3 2.58-29.58 1.21-29.63L1.21-29.63 1.21-30.49Q2.28-30.44 4.03-30.4 5.77-30.36 7.71-30.36L7.71-30.36Q9.65-30.36 11.48-30.4 13.31-30.44 14.51-30.49L14.51-30.49 14.51-29.63Q13.18-29.58 12.47-29.3 11.76-29.02 11.52-28.27 11.28-27.52 11.28-25.92L11.28-25.92 11.28-10.16Q11.28-8.4 11.28-6.35 11.28-4.31 11.13-2.37 10.98-0.43 10.55 1.08L10.55 1.08Q9.69 4.05 6.83 6.07 3.96 8.1-0.99 8.1ZM37.51-22.74L37.51-22.74 37.51-4.69Q37.51-2.76 38.11-1.83 38.71-0.9 40.26-0.9L40.26-0.9 40.26 0Q38.93-0.13 37.59-0.13L37.59-0.13Q35.78-0.13 34.23 0 32.68 0.13 31.31 0.47L31.31 0.47 31.31-3.4Q30.27-1.25 28.44-0.32 26.61 0.6 24.37 0.6L24.37 0.6Q22.56 0.6 21.44 0.13 20.33-0.34 19.68-1.08L19.68-1.08Q18.95-1.89 18.65-3.23 18.34-4.56 18.34-6.67L18.34-6.67 18.34-17.57Q18.34-19.51 17.76-20.43 17.18-21.36 15.59-21.36L15.59-21.36 15.59-22.26Q16.97-22.13 18.26-22.13L18.26-22.13Q20.07-22.13 21.64-22.28 23.21-22.44 24.55-22.74L24.55-22.74 24.55-4.91Q24.55-3.83 24.74-3.01 24.93-2.2 25.49-1.74 26.05-1.29 27.13-1.29L27.13-1.29Q28.85-1.29 30.08-2.73 31.31-4.18 31.31-6.29L31.31-6.29 31.31-17.57Q31.31-19.51 30.72-20.43 30.14-21.36 28.55-21.36L28.55-21.36 28.55-22.26Q29.93-22.13 31.22-22.13L31.22-22.13Q33.03-22.13 34.6-22.28 36.17-22.44 37.51-22.74ZM57.79-22.87L57.79-22.87Q59.6-22.87 60.72-22.41 61.84-21.96 62.53-21.19L62.53-21.19Q63.22-20.37 63.52-19.06 63.82-17.74 63.82-15.59L63.82-15.59 63.82-4Q63.82-2.2 64.38-1.55 64.94-0.9 66.32-0.9L66.32-0.9 66.32 0Q65.54-0.04 63.97-0.11 62.4-0.17 60.89-0.17L60.89-0.17Q59.34-0.17 57.83-0.11 56.33-0.04 55.55 0L55.55 0 55.55-0.9Q56.71-0.9 57.17-1.55 57.62-2.2 57.62-4L57.62-4 57.62-17.4Q57.62-18.47 57.44-19.27 57.27-20.07 56.78-20.52 56.28-20.97 55.29-20.97L55.29-20.97Q54.17-20.97 53.22-20.33 52.28-19.68 51.7-18.54 51.11-17.4 51.11-15.98L51.11-15.98 51.11-4Q51.11-2.2 51.59-1.55 52.06-0.9 53.18-0.9L53.18-0.9 53.18 0Q52.49-0.04 51.05-0.11 49.61-0.17 48.1-0.17L48.1-0.17Q46.46-0.17 44.74-0.11 43.02-0.04 42.16 0L42.16 0 42.16-0.9Q43.67-0.9 44.29-1.55 44.91-2.2 44.91-4L44.91-4 44.91-17.57Q44.91-19.51 44.33-20.43 43.75-21.36 42.16-21.36L42.16-21.36 42.16-22.26Q43.54-22.13 44.83-22.13L44.83-22.13Q46.64-22.13 48.21-22.28 49.78-22.44 51.11-22.74L51.11-22.74 51.11-18.86Q52.15-21.01 53.91-21.94 55.68-22.87 57.79-22.87ZM70.75-22.87L70.75-22.87Q72.56-22.87 73.68-22.41 74.8-21.96 75.49-21.19L75.49-21.19Q76.18-20.37 76.48-19.06 76.78-17.74 76.78-15.59L76.78-15.59 76.78-4Q76.78-2.2 77.4-1.55 78.03-0.9 79.54-0.9L79.54-0.9 79.54 0Q78.72-0.04 77.08-0.11 75.44-0.17 73.85-0.17L73.85-0.17Q72.3-0.17 70.79-0.11 69.29-0.04 68.51 0L68.51 0 68.51-0.9Q69.67-0.9 70.13-1.55 70.58-2.2 70.58-4L70.58-4 70.58-17.4Q70.58-18.47 70.39-19.27 70.19-20.07 69.65-20.52 69.11-20.97 68-20.97L68-20.97Q66.32-20.97 65.07-19.49 63.82-18 63.78-15.85L63.78-15.85 63.56-18.47Q64.72-21.06 66.64-21.96 68.56-22.87 70.75-22.87ZM89.91-22.74L89.91-22.74 89.91 3.53Q89.91 5.56 90.95 6.22 91.98 6.89 93.79 6.89L93.79 6.89 93.79 7.79Q92.67 7.75 90.71 7.69 88.75 7.62 86.56 7.62L86.56 7.62Q84.96 7.62 83.43 7.69 81.9 7.75 81.13 7.79L81.13 7.79 81.13 6.89Q82.55 6.89 83.13 6.29 83.71 5.68 83.71 3.96L83.71 3.96 83.71-17.57Q83.71-19.51 83.11-20.43 82.51-21.36 80.96-21.36L80.96-21.36 80.96-22.26Q82.33-22.13 83.63-22.13L83.63-22.13Q85.39-22.13 86.99-22.28 88.58-22.44 89.91-22.74ZM96.59-22.87L96.59-22.87Q99.86-22.87 102.08-20.2 104.3-17.53 104.3-12.14L104.3-12.14Q104.3-7.97 103.05-5.12 101.8-2.28 99.58-0.84 97.36 0.6 94.31 0.6L94.31 0.6Q92.63 0.6 91.25 0.02 89.87-0.56 89.14-1.64L89.14-1.64 89.57-2.2Q90-1.42 90.8-0.99 91.59-0.56 92.63-0.56L92.63-0.56Q94.56-0.56 95.68-1.87 96.8-3.19 97.3-5.58 97.79-7.97 97.79-11.28L97.79-11.28Q97.79-14.99 97.32-17.1 96.85-19.21 96.03-20.11 95.21-21.01 94.05-21.01L94.05-21.01Q92.5-21.01 91.23-19.81 89.96-18.6 89.78-16.36L89.78-16.36 89.57-17.87Q90.34-20.33 92.22-21.6 94.09-22.87 96.59-22.87ZM104.94 8.1L104.94 8.1 104.94 7.32Q107.05 7.28 108.3 5.66 109.55 4.05 109.55 0.78L109.55 0.78 109.55-17.57Q109.55-19.51 108.95-20.43 108.34-21.36 106.79-21.36L106.79-21.36 106.79-22.26Q108.17-22.13 109.46-22.13L109.46-22.13Q111.23-22.13 112.82-22.28 114.42-22.44 115.75-22.74L115.75-22.74 115.75-4.05Q115.75-0.47 115.04 1.85 114.33 4.18 112.65 5.77L112.65 5.77Q111.57 6.8 109.7 7.45 107.83 8.1 104.94 8.1ZM112.18-33.37L112.18-33.37Q113.99-33.37 115.04-32.49 116.1-31.61 116.1-30.06L116.1-30.06Q116.1-28.51 115.04-27.62 113.99-26.74 112.18-26.74L112.18-26.74Q110.37-26.74 109.31-27.62 108.26-28.51 108.26-30.06L108.26-30.06Q108.26-31.61 109.31-32.49 110.37-33.37 112.18-33.37ZM125.44 0.3L125.44 0.3Q122.56 0.3 121.26-1.21 119.97-2.71 119.97-4.87L119.97-4.87Q119.97-6.72 120.81-7.88 121.65-9.04 122.99-9.8 124.32-10.55 125.81-11.05 127.29-11.54 128.65-12.04 130-12.53 130.84-13.18 131.68-13.82 131.68-14.81L131.68-14.81 131.68-18.17Q131.68-19.29 131.32-20.17 130.95-21.06 130.2-21.53 129.44-22 128.24-22L128.24-22Q127.38-22 126.52-21.77 125.66-21.53 125.1-20.97L125.1-20.97Q126.3-20.54 126.97-19.66 127.64-18.78 127.64-17.66L127.64-17.66Q127.64-16.19 126.62-15.33 125.61-14.47 124.23-14.47L124.23-14.47Q122.68-14.47 121.89-15.44 121.09-16.41 121.09-17.78L121.09-17.78Q121.09-19.03 121.72-19.85 122.34-20.67 123.46-21.4L123.46-21.4Q124.67-22.09 126.37-22.48 128.07-22.87 130.05-22.87L130.05-22.87Q132.03-22.87 133.62-22.46 135.22-22.05 136.29-20.97L136.29-20.97Q137.28-19.98 137.58-18.54 137.89-17.1 137.89-14.9L137.89-14.9 137.89-3.19Q137.89-2.15 138.1-1.72 138.32-1.29 138.83-1.29L138.83-1.29Q139.26-1.29 139.65-1.51 140.04-1.72 140.38-2.02L140.38-2.02 140.81-1.29Q139.91-0.52 138.72-0.11 137.54 0.3 136.08 0.3L136.08 0.3Q133.49 0.3 132.65-0.75 131.81-1.81 131.77-3.19L131.77-3.19Q130.69-1.42 129.12-0.56 127.55 0.3 125.44 0.3ZM128.76-2.45L128.76-2.45Q129.57-2.45 130.28-2.84 131-3.23 131.68-4.22L131.68-4.22 131.68-13.05Q131.17-12.19 130.24-11.61 129.32-11.02 128.35-10.36 127.38-9.69 126.73-8.66 126.09-7.62 126.09-5.9L126.09-5.9Q126.09-4.05 126.86-3.25 127.64-2.45 128.76-2.45ZM157.69-22.87L157.69-22.87Q159.5-22.87 160.62-22.41 161.74-21.96 162.43-21.19L162.43-21.19Q163.12-20.37 163.42-19.06 163.72-17.74 163.72-15.59L163.72-15.59 163.72-4Q163.72-2.2 164.28-1.55 164.84-0.9 166.22-0.9L166.22-0.9 166.22 0Q165.44-0.04 163.87-0.11 162.3-0.17 160.79-0.17L160.79-0.17Q159.24-0.17 157.74-0.11 156.23-0.04 155.45 0L155.45 0 155.45-0.9Q156.62-0.9 157.07-1.55 157.52-2.2 157.52-4L157.52-4 157.52-17.4Q157.52-18.47 157.35-19.27 157.18-20.07 156.68-20.52 156.19-20.97 155.2-20.97L155.2-20.97Q154.08-20.97 153.13-20.33 152.18-19.68 151.6-18.54 151.02-17.4 151.02-15.98L151.02-15.98 151.02-4Q151.02-2.2 151.49-1.55 151.97-0.9 153.09-0.9L153.09-0.9 153.09 0Q152.4-0.04 150.95-0.11 149.51-0.17 148-0.17L148-0.17Q146.37-0.17 144.65-0.11 142.92-0.04 142.06 0L142.06 0 142.06-0.9Q143.57-0.9 144.19-1.55 144.82-2.2 144.82-4L144.82-4 144.82-17.57Q144.82-19.51 144.24-20.43 143.66-21.36 142.06-21.36L142.06-21.36 142.06-22.26Q143.44-22.13 144.73-22.13L144.73-22.13Q146.54-22.13 148.11-22.28 149.68-22.44 151.02-22.74L151.02-22.74 151.02-18.86Q152.05-21.01 153.82-21.94 155.58-22.87 157.69-22.87ZM170.66-22.87L170.66-22.87Q172.46-22.87 173.58-22.41 174.7-21.96 175.39-21.19L175.39-21.19Q176.08-20.37 176.38-19.06 176.68-17.74 176.68-15.59L176.68-15.59 176.68-4Q176.68-2.2 177.31-1.55 177.93-0.9 179.44-0.9L179.44-0.9 179.44 0Q178.62-0.04 176.99-0.11 175.35-0.17 173.76-0.17L173.76-0.17Q172.21-0.17 170.7-0.11 169.19-0.04 168.42 0L168.42 0 168.42-0.9Q169.58-0.9 170.03-1.55 170.48-2.2 170.48-4L170.48-4 170.48-17.4Q170.48-18.47 170.29-19.27 170.1-20.07 169.56-20.52 169.02-20.97 167.9-20.97L167.9-20.97Q166.22-20.97 164.97-19.49 163.72-18 163.68-15.85L163.68-15.85 163.46-18.47Q164.63-21.06 166.54-21.96 168.46-22.87 170.66-22.87Z" transform="translate(0.9900000095367432, 33.369998931884766)"></path></g> <!----> <!----> <!----> <!----> <!----> <!----> <!----></g></g> <!----></g></g><defs v-gra="od"></defs></svg>